<svg width="70" height="71" viewBox="0 0 70 71" fill="none" xmlns="http://www.w3.org/2000/svg">
<g filter="url(#filter0_d)">
<circle cx="34.9999" cy="22.3805" r="16.7999" fill="#F53838"/>
</g>
<path d="M39.8925 22.3806C39.8925 23.773 39.342 25.1084 38.3623 26.0929C37.3825 27.0775 36.0536 27.6306 34.668 27.6306C33.2824 27.6306 31.9535 27.0775 30.9737 26.0929C29.9939 25.1084 29.4435 23.773 29.4435 22.3806C29.4435 22.0814 29.4749 21.7891 29.5288 21.5056H27.702V28.5004C27.702 28.9869 28.0939 29.3806 28.578 29.3806H40.7597C40.9918 29.3802 41.2141 29.2872 41.378 29.1222C41.5419 28.9572 41.634 28.7335 41.634 28.5004V21.5056H39.8071C39.8611 21.7891 39.8925 22.0814 39.8925 22.3806ZM34.668 25.8806C35.1255 25.8805 35.5785 25.7898 36.0011 25.6138C36.4238 25.4378 36.8078 25.1798 37.1312 24.8546C37.4546 24.5295 37.7111 24.1435 37.8861 23.7187C38.0611 23.2939 38.1511 22.8386 38.151 22.3789C38.1509 21.9191 38.0606 21.4639 37.8855 21.0392C37.7103 20.6145 37.4536 20.2286 37.13 19.9036C36.8064 19.5786 36.4223 19.3208 35.9995 19.145C35.5768 18.9692 35.1238 18.8787 34.6663 18.8789C33.7423 18.8791 32.8562 19.2482 32.203 19.9049C31.5499 20.5616 31.183 21.4521 31.1833 22.3806C31.1835 23.3091 31.5508 24.1995 32.2043 24.8559C32.8578 25.5122 33.744 25.8809 34.668 25.8806ZM38.8476 18.7056H40.9356C41.0744 18.7056 41.2074 18.6503 41.3057 18.5519C41.4039 18.4535 41.4594 18.32 41.4598 18.1806V16.0823C41.4598 15.9426 41.4046 15.8087 41.3063 15.7099C41.208 15.6111 41.0747 15.5556 40.9356 15.5556H38.8476C38.7086 15.5556 38.5752 15.6111 38.4769 15.7099C38.3786 15.8087 38.3234 15.9426 38.3234 16.0823V18.1806C38.3251 18.4694 38.5602 18.7056 38.8476 18.7056ZM34.668 5.58057C30.234 5.58057 25.9816 7.35057 22.8463 10.5012C19.711 13.6518 17.9496 17.925 17.9496 22.3806C17.9496 26.8363 19.711 31.1094 22.8463 34.26C25.9816 37.4107 30.234 39.1807 34.668 39.1807C36.8635 39.1807 39.0375 38.7461 41.0658 37.9018C43.0942 37.0576 44.9372 35.8201 46.4896 34.26C48.0421 32.7 49.2736 30.848 50.1137 28.8097C50.9539 26.7714 51.3863 24.5868 51.3863 22.3806C51.3863 20.1744 50.9539 17.9898 50.1137 15.9515C49.2736 13.9132 48.0421 12.0612 46.4896 10.5012C44.9372 8.94116 43.0942 7.70368 41.0658 6.85939C39.0375 6.01511 36.8635 5.58057 34.668 5.58057ZM43.3755 29.1864C43.3755 30.2556 42.5047 31.1306 41.4407 31.1306H27.8953C26.8313 31.1306 25.9605 30.2556 25.9605 29.1864V15.5748C25.9605 14.5056 26.8313 13.6306 27.8953 13.6306H41.4407C42.5047 13.6306 43.3755 14.5056 43.3755 15.5748V29.1864Z" fill="white"/>
<defs>
<filter id="filter0_d" x="0.199951" y="0.580566" width="69.5999" height="69.5999" filterUnits="userSpaceOnUse" color-interpolation-filters="sRGB">
<feFlood flood-opacity="0" result="BackgroundImageFix"/>
<feColorMatrix in="SourceAlpha" type="matrix" values="0 0 0 0 0 0 0 0 0 0 0 0 0 0 0 0 0 0 127 0" result="hardAlpha"/>
<feOffset dy="13"/>
<feGaussianBlur stdDeviation="9"/>
<feColorMatrix type="matrix" values="0 0 0 0 0.0658854 0 0 0 0 0.0730469 0 0 0 0 0.1375 0 0 0 0.08 0"/>
<feBlend mode="normal" in2="BackgroundImageFix" result="effect1_dropShadow"/>
<feBlend mode="normal" in="SourceGraphic" in2="effect1_dropShadow" result="shape"/>
</filter>
</defs>
</svg>
