<svg width="71" height="71" viewBox="0 0 71 71" fill="none" xmlns="http://www.w3.org/2000/svg">
<g filter="url(#filter0_d)">
<circle cx="35.4" cy="22.3805" r="16.7999" fill="#F53838"/>
</g>
<path d="M34.3286 5.58057C25.0952 5.58057 17.6102 13.1021 17.6102 22.3806C17.6102 31.6591 25.0952 39.1807 34.3286 39.1807C43.562 39.1807 51.0469 31.6591 51.0469 22.3806C51.0469 13.1021 43.562 5.58057 34.3286 5.58057ZM41.1291 19.3426C41.1361 19.4861 41.1378 19.6296 41.1378 19.7696C41.1378 24.1446 37.8272 29.1864 31.7703 29.1864C29.9806 29.1894 28.2281 28.6728 26.7235 27.6989C26.9795 27.7304 27.2424 27.7426 27.5089 27.7426C29.0518 27.7426 30.4712 27.2159 31.5979 26.3269C30.9113 26.3133 30.2459 26.0848 29.6946 25.6733C29.1434 25.2617 28.7336 24.6876 28.5224 24.0309C29.0155 24.1251 29.5235 24.1053 30.0079 23.9731C29.2626 23.8217 28.5924 23.4159 28.1109 22.8245C27.6294 22.2332 27.3663 21.4927 27.3661 20.7286V20.6884C27.8102 20.9351 28.3187 21.0856 28.8585 21.1031C28.1598 20.6357 27.6652 19.9178 27.4759 19.0961C27.2865 18.2744 27.4167 17.411 27.8398 16.6826C28.6669 17.7046 29.6984 18.5407 30.8675 19.1366C32.0365 19.7326 33.3171 20.0753 34.6264 20.1424C34.4599 19.4324 34.5316 18.6871 34.8301 18.0222C35.1287 17.3574 35.6375 16.8103 36.2774 16.4661C36.9173 16.1218 37.6525 15.9996 38.3686 16.1185C39.0848 16.2374 39.7418 16.5908 40.2375 17.1236C40.9744 16.9771 41.6811 16.7054 42.3272 16.3203C42.0816 17.0871 41.5674 17.7382 40.8801 18.1526C41.5329 18.0736 42.1703 17.8972 42.7713 17.6294C42.3298 18.2942 41.7737 18.8744 41.1291 19.3426Z" fill="white"/>
<defs>
<filter id="filter0_d" x="0.600098" y="0.580566" width="69.5999" height="69.5999" filterUnits="userSpaceOnUse" color-interpolation-filters="sRGB">
<feFlood flood-opacity="0" result="BackgroundImageFix"/>
<feColorMatrix in="SourceAlpha" type="matrix" values="0 0 0 0 0 0 0 0 0 0 0 0 0 0 0 0 0 0 127 0" result="hardAlpha"/>
<feOffset dy="13"/>
<feGaussianBlur stdDeviation="9"/>
<feColorMatrix type="matrix" values="0 0 0 0 0.0658854 0 0 0 0 0.0730469 0 0 0 0 0.1375 0 0 0 0.08 0"/>
<feBlend mode="normal" in2="BackgroundImageFix" result="effect1_dropShadow"/>
<feBlend mode="normal" in="SourceGraphic" in2="effect1_dropShadow" result="shape"/>
</filter>
</defs>
</svg>
