<svg width="14" height="10" viewBox="0 0 14 10" fill="none" xmlns="http://www.w3.org/2000/svg">
<path d="M5.44863 9.27958C5.31737 9.27984 5.18734 9.25419 5.06602 9.20408C4.94469 9.15397 4.83446 9.08039 4.74163 8.98758L0.499634 4.74458C0.404061 4.6524 0.327803 4.54211 0.275309 4.42014C0.222816 4.29817 0.195138 4.16697 0.193892 4.0342C0.192645 3.90142 0.217854 3.76972 0.268048 3.64679C0.318242 3.52386 0.392416 3.41216 0.486241 3.3182C0.580067 3.22424 0.691664 3.14991 0.814524 3.09954C0.937383 3.04918 1.06904 3.02378 1.20182 3.02484C1.3346 3.0259 1.46584 3.05339 1.58788 3.10571C1.70992 3.15803 1.82032 3.23413 1.91263 3.32958L5.44763 6.86458L11.8126 0.501577C12.0001 0.313936 12.2545 0.208468 12.5198 0.208374C12.7851 0.20828 13.0395 0.313569 13.2271 0.501077C13.4148 0.688585 13.5202 0.942953 13.5203 1.20822C13.5204 1.47349 13.4151 1.72794 13.2276 1.91558L6.15563 8.98758C6.06281 9.08039 5.95258 9.15397 5.83125 9.20408C5.70993 9.25419 5.5799 9.27984 5.44863 9.27958Z" fill="#2FAB73"/>
</svg>
