<svg width="131" height="13" viewBox="0 0 131 13" fill="none" xmlns="http://www.w3.org/2000/svg">
<path d="M6.63144 12.3407C5.5861 12.3407 4.62077 12.0847 3.73544 11.5727C2.86077 11.05 2.1621 10.3513 1.63944 9.47666C1.12744 8.59133 0.871438 7.626 0.871438 6.58066C0.871438 5.53533 1.12744 4.57533 1.63944 3.70066C2.1621 2.81533 2.86077 2.11666 3.73544 1.60466C4.62077 1.082 5.5861 0.820663 6.63144 0.820663C7.67677 0.820663 8.63677 1.082 9.51144 1.60466C10.3968 2.11666 11.0954 2.81533 11.6074 3.70066C12.1301 4.57533 12.3914 5.53533 12.3914 6.58066C12.3914 7.626 12.1301 8.59133 11.6074 9.47666C11.0954 10.3513 10.3968 11.05 9.51144 11.5727C8.63677 12.0847 7.67677 12.3407 6.63144 12.3407ZM6.63144 11.3327C7.48477 11.3327 8.26877 11.1193 8.98344 10.6927C9.6981 10.2553 10.2634 9.674 10.6794 8.94866C11.1061 8.22333 11.3194 7.434 11.3194 6.58066C11.3194 5.72733 11.1061 4.938 10.6794 4.21266C10.2634 3.47666 9.69277 2.89533 8.96744 2.46866C8.25277 2.03133 7.4741 1.81266 6.63144 1.81266C5.78877 1.81266 5.00477 2.03133 4.27944 2.46866C3.56477 2.89533 2.99944 3.47666 2.58344 4.21266C2.16744 4.938 1.95944 5.72733 1.95944 6.58066C1.95944 7.434 2.16744 8.22333 2.58344 8.94866C2.99944 9.674 3.56477 10.2553 4.27944 10.6927C5.00477 11.1193 5.78877 11.3327 6.63144 11.3327ZM6.63144 9.65266C5.8421 9.65266 5.21277 9.41266 4.74344 8.93266C4.2741 8.45266 4.02877 7.85 4.00744 7.12466L3.99144 6.56466L4.00744 6.00466C4.02877 5.27933 4.2741 4.67666 4.74344 4.19666C5.21277 3.71666 5.8421 3.47666 6.63144 3.47666C7.1861 3.47666 7.65544 3.56733 8.03944 3.74866C8.4341 3.93 8.72744 4.15933 8.91944 4.43666C9.1221 4.70333 9.22877 4.97533 9.23944 5.25266C9.23944 5.35933 9.20744 5.44466 9.14344 5.50866C9.07944 5.57266 8.9941 5.60466 8.88744 5.60466H8.37544C8.26877 5.60466 8.18877 5.578 8.13544 5.52466C8.0821 5.47133 8.0341 5.39666 7.99144 5.30066C7.89544 5.05533 7.74077 4.86866 7.52744 4.74066C7.3141 4.61266 7.01544 4.54866 6.63144 4.54866C6.11944 4.54866 5.75677 4.69266 5.54344 4.98066C5.34077 5.26866 5.22877 5.61533 5.20744 6.02066L5.19144 6.56466L5.20744 7.10866C5.22877 7.514 5.34077 7.86066 5.54344 8.14866C5.75677 8.43666 6.11944 8.58066 6.63144 8.58066C7.01544 8.58066 7.3141 8.51666 7.52744 8.38866C7.74077 8.26066 7.89544 8.074 7.99144 7.82866C8.0341 7.73266 8.0821 7.658 8.13544 7.60466C8.18877 7.55133 8.26877 7.52466 8.37544 7.52466H8.88744C8.9941 7.52466 9.07944 7.55666 9.14344 7.62066C9.20744 7.68466 9.23944 7.77 9.23944 7.87666C9.22877 8.154 9.1221 8.43133 8.91944 8.70866C8.72744 8.97533 8.4341 9.19933 8.03944 9.38066C7.65544 9.562 7.1861 9.65266 6.63144 9.65266ZM14.3942 12.1807C14.2875 12.1807 14.1969 12.1487 14.1222 12.0847C14.0582 12.01 14.0262 11.9193 14.0262 11.8127V11.3007C14.0262 11.0553 14.1595 10.8207 14.4262 10.5967L17.8182 7.20466C18.6395 6.522 19.2049 5.96733 19.5142 5.54066C19.8235 5.10333 19.9782 4.64466 19.9782 4.16466C19.9782 3.546 19.8022 3.06066 19.4502 2.70866C19.1089 2.35666 18.6075 2.18066 17.9462 2.18066C17.3275 2.18066 16.8315 2.36733 16.4582 2.74066C16.0849 3.10333 15.8555 3.58866 15.7702 4.19666C15.7489 4.32466 15.6955 4.42066 15.6102 4.48466C15.5355 4.538 15.4502 4.56466 15.3542 4.56466H14.5222C14.4262 4.56466 14.3462 4.538 14.2822 4.48466C14.2182 4.42066 14.1862 4.346 14.1862 4.26066C14.2075 3.68466 14.3622 3.13533 14.6502 2.61266C14.9382 2.07933 15.3595 1.64733 15.9142 1.31666C16.4795 0.97533 17.1569 0.804664 17.9462 0.804664C19.1515 0.804664 20.0582 1.11933 20.6662 1.74866C21.2849 2.36733 21.5942 3.15666 21.5942 4.11666C21.5942 4.78866 21.4235 5.39666 21.0822 5.94066C20.7515 6.474 20.2342 7.05 19.5302 7.66866L16.4582 10.7887H21.4502C21.5675 10.7887 21.6582 10.826 21.7222 10.9007C21.7969 10.9647 21.8342 11.05 21.8342 11.1567V11.8127C21.8342 11.9193 21.7969 12.01 21.7222 12.0847C21.6475 12.1487 21.5569 12.1807 21.4502 12.1807H14.3942ZM27.7048 12.3407C26.3288 12.3407 25.3208 11.9407 24.6808 11.1407C24.0408 10.3407 23.6995 9.29 23.6568 7.98866C23.6461 7.70066 23.6408 7.23666 23.6408 6.59666C23.6408 5.93533 23.6461 5.45533 23.6568 5.15666C23.6888 3.87666 24.0301 2.83666 24.6808 2.03666C25.3315 1.226 26.3395 0.820663 27.7048 0.820663C29.0808 0.820663 30.0941 1.226 30.7448 2.03666C31.3955 2.83666 31.7368 3.87666 31.7688 5.15666C31.7901 5.754 31.8008 6.234 31.8008 6.59666C31.8008 6.94866 31.7901 7.41266 31.7688 7.98866C31.7261 9.29 31.3848 10.3407 30.7448 11.1407C30.1048 11.9407 29.0915 12.3407 27.7048 12.3407ZM27.7048 10.9647C28.5048 10.9647 29.1075 10.698 29.5128 10.1647C29.9288 9.63133 30.1475 8.87933 30.1688 7.90866C30.1901 7.29 30.2008 6.842 30.2008 6.56466C30.2008 6.266 30.1901 5.82866 30.1688 5.25266C30.1475 4.29266 29.9341 3.54066 29.5288 2.99666C29.1235 2.45266 28.5155 2.18066 27.7048 2.18066C26.9048 2.18066 26.2968 2.45266 25.8808 2.99666C25.4755 3.54066 25.2621 4.29266 25.2408 5.25266L25.2248 6.56466L25.2408 7.90866C25.2621 8.87933 25.4755 9.63133 25.8808 10.1647C26.2968 10.698 26.9048 10.9647 27.7048 10.9647ZM33.9411 12.1807C33.8344 12.1807 33.7437 12.1487 33.6691 12.0847C33.6051 12.01 33.5731 11.9193 33.5731 11.8127V11.3007C33.5731 11.0553 33.7064 10.8207 33.9731 10.5967L37.3651 7.20466C38.1864 6.522 38.7517 5.96733 39.0611 5.54066C39.3704 5.10333 39.5251 4.64466 39.5251 4.16466C39.5251 3.546 39.3491 3.06066 38.9971 2.70866C38.6557 2.35666 38.1544 2.18066 37.4931 2.18066C36.8744 2.18066 36.3784 2.36733 36.0051 2.74066C35.6317 3.10333 35.4024 3.58866 35.3171 4.19666C35.2957 4.32466 35.2424 4.42066 35.1571 4.48466C35.0824 4.538 34.9971 4.56466 34.9011 4.56466H34.0691C33.9731 4.56466 33.8931 4.538 33.8291 4.48466C33.7651 4.42066 33.7331 4.346 33.7331 4.26066C33.7544 3.68466 33.9091 3.13533 34.1971 2.61266C34.4851 2.07933 34.9064 1.64733 35.4611 1.31666C36.0264 0.97533 36.7037 0.804664 37.4931 0.804664C38.6984 0.804664 39.6051 1.11933 40.2131 1.74866C40.8317 2.36733 41.1411 3.15666 41.1411 4.11666C41.1411 4.78866 40.9704 5.39666 40.6291 5.94066C40.2984 6.474 39.7811 7.05 39.0771 7.66866L36.0051 10.7887H40.9971C41.1144 10.7887 41.2051 10.826 41.2691 10.9007C41.3437 10.9647 41.3811 11.05 41.3811 11.1567V11.8127C41.3811 11.9193 41.3437 12.01 41.2691 12.0847C41.1944 12.1487 41.1037 12.1807 40.9971 12.1807H33.9411ZM47.2517 12.3407C45.8757 12.3407 44.8677 11.9407 44.2277 11.1407C43.5877 10.3407 43.2464 9.29 43.2037 7.98866C43.193 7.70066 43.1877 7.23666 43.1877 6.59666C43.1877 5.93533 43.193 5.45533 43.2037 5.15666C43.2357 3.87666 43.577 2.83666 44.2277 2.03666C44.8784 1.226 45.8864 0.820663 47.2517 0.820663C48.6277 0.820663 49.641 1.226 50.2917 2.03666C50.9424 2.83666 51.2837 3.87666 51.3157 5.15666C51.337 5.754 51.3477 6.234 51.3477 6.59666C51.3477 6.94866 51.337 7.41266 51.3157 7.98866C51.273 9.29 50.9317 10.3407 50.2917 11.1407C49.6517 11.9407 48.6384 12.3407 47.2517 12.3407ZM47.2517 10.9647C48.0517 10.9647 48.6544 10.698 49.0597 10.1647C49.4757 9.63133 49.6944 8.87933 49.7157 7.90866C49.737 7.29 49.7477 6.842 49.7477 6.56466C49.7477 6.266 49.737 5.82866 49.7157 5.25266C49.6944 4.29266 49.481 3.54066 49.0757 2.99666C48.6704 2.45266 48.0624 2.18066 47.2517 2.18066C46.4517 2.18066 45.8437 2.45266 45.4277 2.99666C45.0224 3.54066 44.809 4.29266 44.7877 5.25266L44.7717 6.56466L44.7877 7.90866C44.809 8.87933 45.0224 9.63133 45.4277 10.1647C45.8437 10.698 46.4517 10.9647 47.2517 10.9647ZM54.0959 12.1807C53.9893 12.1807 53.8986 12.1487 53.8239 12.0847C53.7599 12.01 53.7279 11.9193 53.7279 11.8127V1.34866C53.7279 1.242 53.7599 1.15666 53.8239 1.09266C53.8986 1.018 53.9893 0.980663 54.0959 0.980663H54.9439C55.0506 0.980663 55.1359 1.018 55.1999 1.09266C55.2746 1.15666 55.3119 1.242 55.3119 1.34866V10.7887H60.6239C60.7413 10.7887 60.8319 10.826 60.8959 10.9007C60.9706 10.9647 61.0079 11.0553 61.0079 11.1727V11.8127C61.0079 11.9193 60.9706 12.01 60.8959 12.0847C60.8213 12.1487 60.7306 12.1807 60.6239 12.1807H54.0959ZM64.8556 12.3407C64.3329 12.3407 63.8476 12.234 63.3996 12.0207C62.9516 11.8073 62.5942 11.5193 62.3276 11.1567C62.0716 10.7833 61.9436 10.3727 61.9436 9.92466C61.9436 9.22066 62.2316 8.64466 62.8076 8.19666C63.3942 7.738 64.1836 7.43933 65.1756 7.30066L67.5596 6.96466V6.50066C67.5596 5.41266 66.9356 4.86866 65.6876 4.86866C65.2182 4.86866 64.8342 4.97 64.5356 5.17266C64.2369 5.36466 64.0129 5.594 63.8636 5.86066C63.8316 5.95666 63.7889 6.026 63.7356 6.06866C63.6929 6.11133 63.6289 6.13266 63.5436 6.13266H62.8556C62.7596 6.13266 62.6742 6.10066 62.5996 6.03666C62.5356 5.962 62.5036 5.87666 62.5036 5.78066C62.5142 5.52466 62.6316 5.23666 62.8556 4.91666C63.0902 4.586 63.4476 4.30333 63.9276 4.06866C64.4076 3.82333 64.9996 3.70066 65.7036 3.70066C66.8982 3.70066 67.7569 3.98333 68.2796 4.54866C68.8022 5.10333 69.0636 5.79666 69.0636 6.62866V11.8127C69.0636 11.9193 69.0262 12.01 68.9516 12.0847C68.8876 12.1487 68.8022 12.1807 68.6956 12.1807H67.9596C67.8529 12.1807 67.7622 12.1487 67.6876 12.0847C67.6236 12.01 67.5916 11.9193 67.5916 11.8127V11.1247C67.3569 11.466 67.0156 11.754 66.5676 11.9887C66.1196 12.2233 65.5489 12.3407 64.8556 12.3407ZM65.1916 11.1407C65.8849 11.1407 66.4502 10.9167 66.8876 10.4687C67.3356 10.01 67.5596 9.354 67.5596 8.50066V8.05266L65.7036 8.32466C64.9462 8.43133 64.3756 8.61266 63.9916 8.86866C63.6076 9.114 63.4156 9.42866 63.4156 9.81266C63.4156 10.2393 63.5916 10.57 63.9436 10.8047C64.2956 11.0287 64.7116 11.1407 65.1916 11.1407ZM74.2437 12.3407C73.497 12.3407 72.8677 12.2233 72.3557 11.9887C71.8544 11.7433 71.4757 11.466 71.2197 11.1567C70.9744 10.8473 70.8517 10.5913 70.8517 10.3887C70.8517 10.282 70.889 10.202 70.9637 10.1487C71.049 10.0847 71.1344 10.0527 71.2197 10.0527H71.9397C72.0464 10.0527 72.1424 10.106 72.2277 10.2127C72.4837 10.5113 72.761 10.746 73.0597 10.9167C73.3584 11.0873 73.7584 11.1727 74.2597 11.1727C74.8144 11.1727 75.2624 11.066 75.6037 10.8527C75.9557 10.6287 76.1317 10.3247 76.1317 9.94066C76.1317 9.68466 76.057 9.47666 75.9077 9.31666C75.769 9.146 75.5237 9.002 75.1717 8.88466C74.8304 8.75666 74.3184 8.618 73.6357 8.46866C72.7077 8.266 72.0464 7.97266 71.6517 7.58866C71.2677 7.20466 71.0757 6.70866 71.0757 6.10066C71.0757 5.69533 71.193 5.31133 71.4277 4.94866C71.673 4.57533 72.025 4.27666 72.4837 4.05266C72.953 3.818 73.513 3.70066 74.1637 3.70066C74.8464 3.70066 75.4277 3.81266 75.9077 4.03666C76.3877 4.26066 76.745 4.52733 76.9797 4.83666C77.225 5.13533 77.3477 5.386 77.3477 5.58866C77.3477 5.68466 77.3104 5.76466 77.2357 5.82866C77.1717 5.89266 77.0917 5.92466 76.9957 5.92466H76.3237C76.1957 5.92466 76.089 5.87133 76.0037 5.76466C75.833 5.562 75.6837 5.40733 75.5557 5.30066C75.4384 5.18333 75.2624 5.082 75.0277 4.99666C74.8037 4.91133 74.5157 4.86866 74.1637 4.86866C73.6517 4.86866 73.257 4.98066 72.9797 5.20466C72.7024 5.418 72.5637 5.70066 72.5637 6.05266C72.5637 6.27666 72.6224 6.46866 72.7397 6.62866C72.857 6.778 73.081 6.91666 73.4117 7.04466C73.753 7.17266 74.2437 7.306 74.8837 7.44466C75.897 7.658 76.6117 7.96733 77.0277 8.37266C77.4544 8.76733 77.6677 9.274 77.6677 9.89266C77.6677 10.3513 77.5344 10.7673 77.2677 11.1407C77.001 11.514 76.6064 11.8073 76.0837 12.0207C75.5717 12.234 74.9584 12.3407 74.2437 12.3407ZM79.9039 12.1807C79.7973 12.1807 79.7066 12.1487 79.6319 12.0847C79.5679 12.01 79.5359 11.9193 79.5359 11.8127V1.18866C79.5359 1.082 79.5679 0.996664 79.6319 0.932664C79.7066 0.857997 79.7973 0.820663 79.9039 0.820663H80.6559C80.7626 0.820663 80.8479 0.857997 80.9119 0.932664C80.9866 0.996664 81.0239 1.082 81.0239 1.18866V11.8127C81.0239 11.9193 80.9866 12.01 80.9119 12.0847C80.8479 12.1487 80.7626 12.1807 80.6559 12.1807H79.9039ZM86.7386 12.3407C85.6399 12.3407 84.7599 12.0047 84.0986 11.3327C83.4479 10.65 83.0906 9.722 83.0266 8.54866L83.0106 8.00466L83.0266 7.47666C83.1012 6.32466 83.4639 5.40733 84.1146 4.72466C84.7759 4.042 85.6452 3.70066 86.7226 3.70066C87.9066 3.70066 88.8239 4.07933 89.4746 4.83666C90.1252 5.58333 90.4506 6.59666 90.4506 7.87666V8.14866C90.4506 8.25533 90.4132 8.346 90.3386 8.42066C90.2746 8.48466 90.1892 8.51666 90.0826 8.51666H84.5466V8.66066C84.5786 9.354 84.7866 9.946 85.1706 10.4367C85.5652 10.9167 86.0826 11.1567 86.7226 11.1567C87.2132 11.1567 87.6132 11.0607 87.9226 10.8687C88.2426 10.666 88.4772 10.458 88.6266 10.2447C88.7226 10.1167 88.7919 10.042 88.8346 10.0207C88.8879 9.98866 88.9786 9.97266 89.1066 9.97266H89.8906C89.9866 9.97266 90.0666 9.99933 90.1306 10.0527C90.1946 10.106 90.2266 10.1807 90.2266 10.2767C90.2266 10.5113 90.0772 10.794 89.7786 11.1247C89.4906 11.4553 89.0799 11.7433 88.5466 11.9887C88.0239 12.2233 87.4212 12.3407 86.7386 12.3407ZM88.9306 7.41266V7.36466C88.9306 6.62866 88.7279 6.03133 88.3226 5.57266C87.9279 5.10333 87.3946 4.86866 86.7226 4.86866C86.0506 4.86866 85.5172 5.10333 85.1226 5.57266C84.7386 6.03133 84.5466 6.62866 84.5466 7.36466V7.41266H88.9306ZM95.2437 12.3407C94.497 12.3407 93.8677 12.2233 93.3557 11.9887C92.8544 11.7433 92.4757 11.466 92.2197 11.1567C91.9744 10.8473 91.8517 10.5913 91.8517 10.3887C91.8517 10.282 91.889 10.202 91.9637 10.1487C92.049 10.0847 92.1344 10.0527 92.2197 10.0527H92.9397C93.0464 10.0527 93.1424 10.106 93.2277 10.2127C93.4837 10.5113 93.761 10.746 94.0597 10.9167C94.3584 11.0873 94.7584 11.1727 95.2597 11.1727C95.8144 11.1727 96.2624 11.066 96.6037 10.8527C96.9557 10.6287 97.1317 10.3247 97.1317 9.94066C97.1317 9.68466 97.057 9.47666 96.9077 9.31666C96.769 9.146 96.5237 9.002 96.1717 8.88466C95.8304 8.75666 95.3184 8.618 94.6357 8.46866C93.7077 8.266 93.0464 7.97266 92.6517 7.58866C92.2677 7.20466 92.0757 6.70866 92.0757 6.10066C92.0757 5.69533 92.193 5.31133 92.4277 4.94866C92.673 4.57533 93.025 4.27666 93.4837 4.05266C93.953 3.818 94.513 3.70066 95.1637 3.70066C95.8464 3.70066 96.4277 3.81266 96.9077 4.03666C97.3877 4.26066 97.745 4.52733 97.9797 4.83666C98.225 5.13533 98.3477 5.386 98.3477 5.58866C98.3477 5.68466 98.3104 5.76466 98.2357 5.82866C98.1717 5.89266 98.0917 5.92466 97.9957 5.92466H97.3237C97.1957 5.92466 97.089 5.87133 97.0037 5.76466C96.833 5.562 96.6837 5.40733 96.5557 5.30066C96.4384 5.18333 96.2624 5.082 96.0277 4.99666C95.8037 4.91133 95.5157 4.86866 95.1637 4.86866C94.6517 4.86866 94.257 4.98066 93.9797 5.20466C93.7024 5.418 93.5637 5.70066 93.5637 6.05266C93.5637 6.27666 93.6224 6.46866 93.7397 6.62866C93.857 6.778 94.081 6.91666 94.4117 7.04466C94.753 7.17266 95.2437 7.306 95.8837 7.44466C96.897 7.658 97.6117 7.96733 98.0277 8.37266C98.4544 8.76733 98.6677 9.274 98.6677 9.89266C98.6677 10.3513 98.5344 10.7673 98.2677 11.1407C98.001 11.514 97.6064 11.8073 97.0837 12.0207C96.5717 12.234 95.9584 12.3407 95.2437 12.3407ZM103.848 12.1807C103.539 12.1807 103.336 12.0313 103.24 11.7327L99.8159 1.46066L99.7839 1.31666C99.7839 1.22066 99.8159 1.14066 99.8799 1.07666C99.9439 1.01266 100.024 0.980663 100.12 0.980663H101.528C101.667 0.980663 101.773 1.018 101.848 1.09266C101.933 1.15666 101.992 1.23666 102.024 1.33266L104.728 9.57266L107.432 1.33266C107.453 1.24733 107.507 1.16733 107.592 1.09266C107.677 1.018 107.789 0.980663 107.928 0.980663H109.336C109.421 0.980663 109.496 1.01266 109.56 1.07666C109.635 1.14066 109.672 1.22066 109.672 1.31666L109.64 1.46066L106.216 11.7327C106.12 12.0313 105.917 12.1807 105.608 12.1807H103.848ZM111.749 12.1807C111.643 12.1807 111.552 12.1433 111.477 12.0687C111.403 11.994 111.365 11.9033 111.365 11.7967V1.38066C111.365 1.26333 111.397 1.16733 111.461 1.09266C111.536 1.018 111.632 0.980663 111.749 0.980663H116.037C117.317 0.980663 118.325 1.28466 119.061 1.89266C119.797 2.49 120.165 3.37 120.165 4.53266C120.165 5.69533 119.797 6.57533 119.061 7.17266C118.336 7.75933 117.328 8.05266 116.037 8.05266H113.653V11.7967C113.653 11.9033 113.616 11.994 113.541 12.0687C113.477 12.1433 113.387 12.1807 113.269 12.1807H111.749ZM115.957 6.27666C116.576 6.27666 117.051 6.13266 117.381 5.84466C117.712 5.546 117.877 5.10866 117.877 4.53266C117.877 3.978 117.717 3.546 117.397 3.23666C117.077 2.91666 116.597 2.75666 115.957 2.75666H113.621V6.27666H115.957ZM122.296 12.1807C122.189 12.1807 122.099 12.1433 122.024 12.0687C121.949 11.994 121.912 11.9033 121.912 11.7967V1.38066C121.912 1.26333 121.944 1.16733 122.008 1.09266C122.083 1.018 122.179 0.980663 122.296 0.980663H123.528C123.656 0.980663 123.752 1.00733 123.816 1.06066C123.88 1.10333 123.939 1.162 123.992 1.23666L128.6 8.40466V1.38066C128.6 1.26333 128.632 1.16733 128.696 1.09266C128.771 1.018 128.867 0.980663 128.984 0.980663H130.328C130.445 0.980663 130.541 1.018 130.616 1.09266C130.691 1.16733 130.728 1.26333 130.728 1.38066V11.7807C130.728 11.898 130.691 11.994 130.616 12.0687C130.541 12.1433 130.451 12.1807 130.344 12.1807H129.096C128.915 12.1807 128.76 12.0953 128.632 11.9247L124.04 4.91666V11.7967C124.04 11.914 124.003 12.01 123.928 12.0847C123.853 12.1487 123.757 12.1807 123.64 12.1807H122.296Z" fill="#AFB5C0"/>
</svg>
